<?xml version="1.0" encoding="iso-8859-1"?>
<!-- Generator: Adobe Illustrator 19.0.0, SVG Export Plug-In . SVG Version: 6.00 Build 0)  -->
<svg version="1.1" id="Layer_1" xmlns="http://www.w3.org/2000/svg" xmlns:xlink="http://www.w3.org/1999/xlink" x="0px" y="0px"
	 viewBox="0 0 496.2 496.2" style="enable-background:new 0 0 496.2 496.2;" xml:space="preserve">
<path style="fill:#32BEA6;" d="M0,248.1C0,111.1,111.1,0,248.1,0s248.1,111.1,248.1,248.1S385.1,496.2,248.1,496.2S0,385.1,0,248.1z
	"/>
<g>
	<path style="fill:#E5AD88;" d="M343,349.5c0.8-8.4-7.7-55.1-22.6-73.1l-48.6,0.3l-17.7-14.6c-5.7-6.5-17.4-21.3-17.4-21.3
		l-27.6,17.6c2.4,11.7,0.6,17.6,7.8,28.6c9.7,14.7,17.6,33.2,48.5,79.4l-41.9,128.5c8.1,0.8,16.2,1.2,24.5,1.2
		c21.3,0,41.9-2.7,61.6-7.7c7.9-37.4,16-75.6,20.6-97.2C332,383.2,342,359.8,343,349.5z"/>
	<path style="fill:#E5AD88;" d="M212.6,278.5c6.5,4.8,19.2-16.7,23.9-23.1l0,0c4.7-6.4,1.8-13.4,1.8-13.4l-32.6-36.5l-32.4-41
		c-6.5-4.8-10.6-8.9-17.4-5.5c-9,4.4-4.9,19.2,1.7,26.2l22.3,39.5L212.6,278.5z"/>
</g>
<path style="fill:#EFE020;" d="M353.8,88.3c-0.7-2.2-2.3-4-4.3-5.1l-97.7-50.3c-4.3-2.2-9.5-0.5-11.8,3.8l-84.6,164.4
	c-2.2,4.3-0.5,9.5,3.8,11.8l97.7,50.3c1.2,0.6,2.6,1,4,1c0.9,0,1.8-0.1,2.7-0.4c2.2-0.7,4-2.3,5.1-4.3l84.6-164.4
	C354.3,92.9,354.5,90.6,353.8,88.3z"/>
<path style="fill:#E5AD88;" d="M323.6,281.4c0,0-14.6-19.9-20.2-33.8c-2.9-7.1-13-19.5-24.5-31.5c-11.1-11.5-23.5-21.3-28.6-20.8
	c-14,1.4-8.6,23.4-7.7,25.8c7.8,20.3,28,41.2,28,41.2l4.9,29.5L323.6,281.4z"/>
<g>
</g>
<g>
</g>
<g>
</g>
<g>
</g>
<g>
</g>
<g>
</g>
<g>
</g>
<g>
</g>
<g>
</g>
<g>
</g>
<g>
</g>
<g>
</g>
<g>
</g>
<g>
</g>
<g>
</g>
</svg>
