<?xml version="1.0" encoding="iso-8859-1"?>
<!-- Generator: Adobe Illustrator 19.0.0, SVG Export Plug-In . SVG Version: 6.00 Build 0)  -->
<svg version="1.1" id="Layer_1" xmlns="http://www.w3.org/2000/svg" xmlns:xlink="http://www.w3.org/1999/xlink" x="0px" y="0px"
	 viewBox="0 0 503.243 503.243" style="enable-background:new 0 0 503.243 503.243;" xml:space="preserve">
<g>
	<path style="fill:#FFA733;" d="M481.26,21.983l-307.3,307.3l40.97,40.97c105.03-94.23,241.94-217.57,266.33-241.96
		C510.57,98.983,510.57,51.293,481.26,21.983z"/>
	<path style="fill:#FFB655;" d="M481.26,21.983c-29.31-29.31-77-29.31-106.31,0c-24.4,24.4-147.44,161.57-241.46,266.83l40.47,40.47
		L481.26,21.983z"/>
	<path style="fill:#1D1D1F;" d="M42.76,460.493l42.75,42.75l28.29-28.28l-7.45-7.45c21.39-19.13,61.83-55.31,108.58-97.26
		l-40.97-40.97L42.76,460.493z"/>
	<path style="fill:#3E3D42;" d="M133.49,288.813c-41.83,46.84-77.92,87.37-97.02,108.82l-8.19-8.19L0,417.733l42.76,42.76
		l131.2-131.21L133.49,288.813z"/>
</g>
<g>
</g>
<g>
</g>
<g>
</g>
<g>
</g>
<g>
</g>
<g>
</g>
<g>
</g>
<g>
</g>
<g>
</g>
<g>
</g>
<g>
</g>
<g>
</g>
<g>
</g>
<g>
</g>
<g>
</g>
</svg>
