<?xml version="1.0" encoding="iso-8859-1"?>
<!-- Generator: Adobe Illustrator 19.0.0, SVG Export Plug-In . SVG Version: 6.00 Build 0)  -->
<svg version="1.1" id="Layer_1" xmlns="http://www.w3.org/2000/svg" xmlns:xlink="http://www.w3.org/1999/xlink" x="0px" y="0px"
	 viewBox="0 0 496.2 496.2" style="enable-background:new 0 0 496.2 496.2;" xml:space="preserve">
<path style="fill:#A2D4DE;" d="M0,248.1C0,111.1,111.1,0,248.1,0s248.1,111.1,248.1,248.1S385.1,496.2,248.1,496.2S0,385.1,0,248.1z
	"/>
<path style="fill:#65A844;" d="M0,248.1h496.2c0,137-111.1,248.1-248.1,248.1S0,385.1,0,248.1z"/>
<path style="fill:#C1E2AF;" d="M248.1,496.2c84,0,158.2-41.7,203.1-105.6l-203.5-89.5L44.8,390.3C89.7,454.3,164,496.2,248.1,496.2z
	"/>
<path style="fill:#65A844;" d="M248.1,496.2c78.9,0,149.2-36.8,194.6-94.3l-195-85.8L53.3,401.7C98.7,459.2,169.1,496.2,248.1,496.2
	z"/>
<rect x="243.9" y="85.1" style="fill:#FFFFFF;" width="8.4" height="293.5"/>
<rect x="243.9" y="85.1" style="fill:#E21B1B;" width="8.4" height="80.5"/>
<path style="fill:#F2B408;" d="M285.9,411.1c0-20.8-16.9-37.6-37.6-37.6c-20.8,0-37.6,16.8-37.6,37.6H285.9z"/>
<polygon style="fill:#EA4949;" points="252.3,165.5 252.3,85.1 367.8,124.5 "/>
<g>
</g>
<g>
</g>
<g>
</g>
<g>
</g>
<g>
</g>
<g>
</g>
<g>
</g>
<g>
</g>
<g>
</g>
<g>
</g>
<g>
</g>
<g>
</g>
<g>
</g>
<g>
</g>
<g>
</g>
</svg>
