<?xml version="1.0" encoding="iso-8859-1"?>
<!-- Generator: Adobe Illustrator 19.0.0, SVG Export Plug-In . SVG Version: 6.00 Build 0)  -->
<svg version="1.1" id="Layer_1" xmlns="http://www.w3.org/2000/svg" xmlns:xlink="http://www.w3.org/1999/xlink" x="0px" y="0px"
	 viewBox="0 0 454.99 454.99" style="enable-background:new 0 0 454.99 454.99;" xml:space="preserve">
<g>
	<path style="fill:#FFE477;" d="M200.93,334.235C98.31,307.615,30.31,215.075,30.5,113.765l-0.05-0.03
		C11.08,147.195,0,186.055,0,227.495c0,84.2,45.74,157.72,113.74,197.05C150.59,403.225,180.9,371.875,200.93,334.235z"/>
	<path style="fill:#FFCD00;" d="M333.21,197.125c28.25,102.19-17.88,207.35-105.72,257.85c125.64,0.01,227.5-101.84,227.5-227.48
		C418.12,206.235,375.83,195.665,333.21,197.125z"/>
	<path style="fill:#FFD422;" d="M148.36,151.115c19.06,30.61,45.73,57.1,79.13,76.38c33.41-19.29,69.68-29.14,105.72-30.37
		c42.62-1.46,84.91,9.11,121.78,30.35c0-41.44-11.09-80.28-30.45-113.74l-0.05,0.03C336.85,62.945,222.7,75.565,148.36,151.115z"/>
	<path style="fill:#FFEB99;" d="M200.91,334.225c16.97-31.82,26.58-68.15,26.58-106.73c-33.4-19.28-60.07-45.77-79.15-76.37
		c-22.58-36.17-34.57-78.09-34.61-120.65c-34.53,19.95-63.31,48.74-83.28,83.26l0.05,0.03
		C30.31,215.075,98.31,307.615,200.91,334.225z"/>
	<path style="fill:#FFDE55;" d="M333.21,197.155c-36.04,1.2-72.31,11.05-105.72,30.34c0,38.58-9.61,74.91-26.56,106.74
		c-20.03,37.64-50.34,68.99-87.18,90.3c33.45,19.37,72.3,30.45,113.74,30.45C315.33,404.475,361.46,299.315,333.21,197.155z"/>
	<path style="fill:#FFE477;" d="M148.34,151.125c74.36-75.56,188.51-88.18,276.15-37.36l0.05-0.03
		C385.2,45.745,311.69,0.005,227.49,0.005c-41.45,0-80.31,11.08-113.77,30.45C113.77,73.035,125.76,114.955,148.34,151.125z"/>
</g>
<g>
</g>
<g>
</g>
<g>
</g>
<g>
</g>
<g>
</g>
<g>
</g>
<g>
</g>
<g>
</g>
<g>
</g>
<g>
</g>
<g>
</g>
<g>
</g>
<g>
</g>
<g>
</g>
<g>
</g>
</svg>
